<?xml version="1.0" encoding="UTF-8"?>
<svg version="1.1" xmlns="http://www.w3.org/2000/svg" width="512" height="512">
<path d="M0 0 C1.45838349 -0.00373888 2.91676497 -0.00834134 4.37514329 -0.01373065 C8.3742713 -0.0259468 12.37331557 -0.02570181 16.37245798 -0.02334189 C20.68889049 -0.02293338 25.00529628 -0.03397623 29.32171631 -0.04345703 C37.77540868 -0.06006051 46.22907316 -0.06556629 54.68278047 -0.06668179 C61.55561674 -0.06763259 68.42844381 -0.07174449 75.30127716 -0.07808304 C94.79368755 -0.09569382 114.28607593 -0.10492219 133.77849433 -0.10342209 C135.35431731 -0.10330222 135.35431731 -0.10330222 136.9619751 -0.10317993 C138.53972565 -0.10305729 138.53972565 -0.10305729 140.14934996 -0.10293217 C157.19374196 -0.10211936 174.23804558 -0.12125617 191.28241202 -0.14945666 C208.78997517 -0.17819459 226.29749523 -0.19199645 243.80508256 -0.19026911 C253.63162612 -0.18960552 263.45807701 -0.19508451 273.2845993 -0.21662521 C281.6515117 -0.23484897 290.01828944 -0.23917454 298.38521311 -0.22560637 C302.65193021 -0.2190827 306.91838905 -0.21893767 311.18508148 -0.23631287 C315.09609602 -0.25207545 319.00664821 -0.24914782 322.91765168 -0.2317446 C324.32745595 -0.22868168 325.73729499 -0.23228034 327.14705822 -0.24346475 C339.10594167 -0.33200706 349.99001015 1.59468315 358.79302979 10.26742554 C368.84354534 21.95595268 369.23354163 33.80773535 369.17398071 48.56234741 C369.17744021 50.42826358 369.18220672 52.29417771 369.18816245 54.16008759 C369.20066198 59.27175525 369.19450677 64.38325444 369.18520379 69.49492264 C369.17840939 75.01374694 369.18889648 80.53254251 369.19714355 86.05136108 C369.21047887 96.85652638 369.20760402 107.66162913 369.19890563 118.46679688 C369.19212872 127.24889641 369.19121241 136.03097843 369.19447708 144.81307983 C369.19493678 146.06330099 369.19539648 147.31352214 369.19587011 148.60162878 C369.19682929 151.14148013 369.19780193 153.68133148 369.19878788 156.22118282 C369.20709739 179.35503022 369.19848213 202.48884495 369.18276009 225.62268484 C369.1685238 246.73084583 369.1697977 267.83895252 369.18414307 288.94711304 C369.20021493 312.67486455 369.20651722 336.40258978 369.19730628 360.13034821 C369.19635063 362.66082255 369.19540752 365.19129689 369.19447708 367.72177124 C369.19401425 368.96679208 369.19355143 370.21181293 369.19307458 371.49456167 C369.19048501 380.26545535 369.19485499 389.03632976 369.20191574 397.80722046 C369.21033208 408.49693464 369.20804772 419.18658275 369.19207351 429.87628937 C369.18419266 435.32965227 369.18109612 440.78290502 369.19102097 446.23626709 C369.19997207 451.23014307 369.195028 456.22380697 369.17908831 461.21766376 C369.1757423 463.02237393 369.17743053 464.82710209 369.18471567 466.63180065 C369.2358971 480.36614721 368.32624921 491.60739031 358.79302979 502.26742554 C348.51325633 511.30682963 338.68169664 512.71737951 325.34555054 512.65510559 C323.88543917 512.65928326 322.42533106 512.66476315 320.96522892 512.6714254 C316.97057745 512.68584201 312.97613296 512.68164719 308.98147035 512.67425859 C304.66642985 512.66951981 300.35143367 512.68204306 296.03640747 512.692276 C287.58965736 512.70945556 279.14298167 512.71030574 270.69621862 512.7050631 C263.82914739 512.70101851 256.96209811 512.70246839 250.09502792 512.70781136 C249.11694541 512.70855978 248.13886289 512.7093082 247.13114151 512.7100793 C245.14404035 512.71161081 243.1569392 512.71314916 241.16983806 512.71469427 C222.54296371 512.72841632 203.91613138 512.72298374 185.28925799 512.71150906 C168.25792237 512.70157752 151.2266954 512.71451651 134.19537653 512.73844325 C116.69678516 512.76284074 99.19824438 512.77244048 81.69963634 512.76579052 C71.87983533 512.76229968 62.06011787 512.76452143 52.24032974 512.78204155 C43.88077813 512.79677166 35.52136891 512.79738839 27.16182007 512.77997064 C22.89914471 512.77146485 18.63672361 512.76930071 14.37406158 512.78462219 C10.46681928 512.79849197 6.56004852 512.79367709 2.65283333 512.77438296 C1.24443817 512.77062961 -0.16399496 512.77352567 -1.57235621 512.78399461 C-13.37577972 512.86544904 -22.98475651 510.96945329 -32.20306396 503.25180054 C-38.94862786 496.57198287 -43.49445253 487.93549504 -43.60963118 478.33787572 C-43.60317938 477.63074048 -43.59672757 476.92360524 -43.59008026 476.19504166 C-43.59503978 475.41950766 -43.59999929 474.64397366 -43.6051091 473.84493864 C-43.61802898 471.25466218 -43.6096921 468.66490427 -43.60137939 466.07461548 C-43.60627001 464.19535067 -43.61246061 462.31608888 -43.61983728 460.43683219 C-43.63623837 455.27891144 -43.63391849 450.12114352 -43.62846231 444.96320581 C-43.62579232 439.39794699 -43.64032342 433.83272892 -43.65255737 428.26748657 C-43.67361529 417.36646726 -43.678152 406.46550113 -43.67636949 395.56446388 C-43.67506196 386.70319426 -43.67886551 377.84194124 -43.68629456 368.98067474 C-43.68839375 366.42836118 -43.69049135 363.87604761 -43.69258738 361.32373405 C-43.6936309 360.0533749 -43.69467443 358.78301576 -43.69574958 357.47416088 C-43.70928346 340.27179578 -43.71687586 323.06943866 -43.71242523 305.86706924 C-43.71225328 305.19451572 -43.71208132 304.52196219 -43.71190416 303.82902825 C-43.71101529 300.42038393 -43.71007048 297.01173962 -43.70910615 293.60309532 C-43.70891511 292.92614792 -43.70872408 292.24920052 -43.70852726 291.55173956 C-43.70814017 290.18278729 -43.70774984 288.81383503 -43.70735628 287.44488276 C-43.70138767 266.1490323 -43.7168192 244.85329055 -43.7489624 223.5574646 C-43.78505978 199.62167968 -43.80432545 175.68597327 -43.79942369 151.75015235 C-43.79717928 139.08039345 -43.80241817 126.4107423 -43.82731628 113.74100494 C-43.84833418 102.95392054 -43.85191648 92.16700296 -43.83301669 81.37991169 C-43.82386175 75.87763373 -43.82270876 70.37566678 -43.84337234 64.87341309 C-43.86209428 59.83235671 -43.85756481 54.79186579 -43.83482653 49.75083086 C-43.83064388 47.93121762 -43.83482945 46.11156092 -43.84842247 44.29199365 C-43.9389999 31.2765852 -42.6958756 19.92003901 -33.22650146 10.01742554 C-22.89483085 1.06464326 -13.18654399 -0.03200317 0 0 Z " fill="#E1E2E2" transform="translate(93.20697021484375,-0.267425537109375)"/>
<path d="M0 0 C1.72863281 0.74636719 1.72863281 0.74636719 3.4921875 1.5078125 C21.85657233 9.80068846 35.52322193 24.69220055 43.375 43.1875 C49.24959355 59.70990486 49.98166393 80.79753288 43.37890625 97.14453125 C41.72841529 100.56240347 40.08853524 103.82852057 38 107 C34.74611025 105.59117301 32.81232484 103.92326856 30.4375 101.3125 C16.14482459 86.70220958 -5.01497026 80.09735527 -25.01733398 79.70703125 C-48.53970859 79.54970411 -68.91063454 85.94547141 -86.44921875 102.28125 C-88.3392004 104.15473966 -90.18976584 106.04971907 -92 108 C-94.83798465 104.66557488 -96.13867837 101.30720961 -97.5625 97.1875 C-97.97628906 96.00542969 -98.39007813 94.82335937 -98.81640625 93.60546875 C-99.20699219 92.41566406 -99.59757812 91.22585937 -100 90 C-100.56267578 88.37578125 -100.56267578 88.37578125 -101.13671875 86.71875 C-102.26354874 81.86471313 -102.30044725 77.27837476 -102.25 72.3125 C-102.24105713 71.33007324 -102.23211426 70.34764648 -102.22290039 69.33544922 C-101.92866957 50.92239304 -96.64354097 36.35539132 -85 22 C-84.21625 20.948125 -83.4325 19.89625 -82.625 18.8125 C-62.87837352 -2.3445998 -27.09179996 -12.47551551 0 0 Z " fill="#FEFEFE" transform="translate(204,64)"/>
<path d="M0 0 C0.98097656 0.44214844 1.96195312 0.88429687 2.97265625 1.33984375 C10.84463126 5.2475148 16.79317198 10.8985348 23 17 C23.6290625 17.52207031 24.258125 18.04414063 24.90625 18.58203125 C26 20 26 20 25.890625 21.91015625 C23.25583818 28.09266041 17.86068763 33.48650435 13 38 C12.42378906 38.59296875 11.84757812 39.1859375 11.25390625 39.796875 C-3.28250281 53.97605662 -23.14070219 58.68931509 -42.89672852 58.54125977 C-61.83094128 57.89029785 -79.31828544 48.86444995 -92.51171875 35.4453125 C-99.92890357 27.39509902 -99.92890357 27.39509902 -102 23 C-101.77434022 17.86429458 -99.19694214 15.55793999 -95.62109375 12.1796875 C-68.49187263 -10.38082723 -31.87471055 -14.48850479 0 0 Z " fill="#797979" transform="translate(215,151)"/>
<path d="M0 0 C1.05051607 -0.00782324 2.10103214 -0.01564648 3.18338203 -0.02370679 C4.33628668 -0.01701463 5.48919132 -0.01032246 6.67703247 -0.00342751 C7.90269361 -0.00810748 9.12835476 -0.01278745 10.39115715 -0.01760924 C13.79504447 -0.02751832 17.19843655 -0.02393406 20.60229397 -0.01465058 C24.27242695 -0.00787399 27.94251606 -0.0183344 31.61264038 -0.02659035 C38.80309391 -0.03994476 45.99345361 -0.03704236 53.18391085 -0.02835242 C59.02665764 -0.02158299 64.8693781 -0.02065594 70.71212769 -0.02392387 C71.54303921 -0.02438357 72.37395073 -0.02484327 73.23004138 -0.0253169 C74.91791233 -0.02627606 76.60578327 -0.0272487 78.2936542 -0.02823468 C94.12856858 -0.03679357 109.9634309 -0.02694661 125.79833674 -0.01083358 C139.39155437 0.00257006 152.98469514 0.00024211 166.57791138 -0.01358986 C182.35535765 -0.02963686 198.13275827 -0.03596955 213.91021156 -0.02675307 C215.59194564 -0.0257974 217.27367973 -0.02485429 218.95541382 -0.02392387 C219.7829041 -0.02346105 220.61039438 -0.02299822 221.46296012 -0.02252137 C227.30009612 -0.01992884 233.1372032 -0.02430814 238.97433472 -0.03136253 C246.0858452 -0.03976796 253.19725633 -0.03751762 260.3087554 -0.0215203 C263.938612 -0.01362462 267.56830281 -0.0105679 271.19815826 -0.02046776 C275.12903604 -0.03102663 279.05964108 -0.01843683 282.99050903 -0.00342751 C284.14341368 -0.01011967 285.29631832 -0.01681184 286.48415947 -0.02370679 C287.53467554 -0.01588355 288.58519161 -0.00806031 289.6675415 0 C291.02900393 0.00073059 291.02900393 0.00073059 292.41797066 0.00147593 C295.34531708 0.45715158 296.72432902 1.31826613 298.83377075 3.37752342 C299.2891757 6.50030021 299.52244067 8.43052841 297.62375259 11.04142821 C295.22870302 12.82916381 293.73196179 12.75346241 290.75656128 12.75504684 C289.70045277 12.76287009 288.64434425 12.77069333 287.55623245 12.77875364 C286.39195095 12.77206147 285.22766945 12.76536931 284.02810669 12.75847435 C282.7944273 12.76315432 281.56074791 12.76783429 280.2896843 12.77265608 C276.85880567 12.78257589 273.42841732 12.7789733 269.99756813 12.76969743 C266.30016996 12.76292768 262.60281558 12.77337782 258.90542603 12.78163719 C251.65969159 12.79499897 244.41405021 12.79208594 237.16831207 12.78339927 C231.28119643 12.77663272 225.39410693 12.77570153 219.50698853 12.77897072 C218.25165884 12.77966027 218.25165884 12.77966027 216.97096896 12.78036375 C215.27101675 12.78132289 213.57106454 12.78229553 211.87111235 12.78328152 C195.91891716 12.79184257 179.96677364 12.78199008 164.01458693 12.76588042 C150.31757024 12.75247659 136.62062981 12.75480448 122.9236145 12.7686367 C107.02972278 12.7846799 91.13587638 12.79101853 75.24197769 12.78179991 C73.54816946 12.78084423 71.85436122 12.77990112 70.16055298 12.77897072 C69.32709878 12.77850789 68.49364458 12.77804507 67.63493419 12.77756821 C61.75275637 12.77497454 55.87060722 12.77935744 49.98843384 12.78640938 C42.82307201 12.7948106 35.65780882 12.79257338 28.49245834 12.77656715 C24.83437927 12.76866576 21.17646482 12.76562438 17.51838684 12.7755146 C13.55864242 12.78605877 9.59916945 12.77349563 5.63943481 12.75847435 C4.47515331 12.76516652 3.31087181 12.77185868 2.11130905 12.77875364 C0.52714628 12.76701878 0.52714628 12.76701878 -1.08901978 12.75504684 C-2.00365871 12.75455979 -2.91829765 12.75407273 -3.86065292 12.75357091 C-6.63700091 12.30073893 -7.52587761 11.63318291 -9.16622925 9.37752342 C-9.60372925 6.37752342 -9.60372925 6.37752342 -9.16622925 3.37752342 C-6.20893257 0.49058199 -4.0646392 0.00218116 0 0 Z " fill="#B9B9B9" transform="translate(111.16622924804688,373.6224765777588)"/>
<path d="M0 0 C1.57801263 -0.01173486 1.57801263 -0.01173486 3.1879043 -0.02370679 C4.92746695 -0.01366855 4.92746695 -0.01366855 6.70217228 -0.00342751 C7.93106255 -0.00810748 9.15995282 -0.01278745 10.42608219 -0.01760924 C13.84362931 -0.02752897 17.26068423 -0.02392649 20.67820179 -0.01465058 C24.36130409 -0.00788072 28.04436244 -0.01833109 31.72745609 -0.02659035 C38.94545217 -0.0399524 46.16335483 -0.03703886 53.38135462 -0.02835242 C59.24653187 -0.02158546 65.11168288 -0.02065487 70.97686291 -0.02392387 C71.81068528 -0.02438357 72.64450765 -0.02484327 73.50359737 -0.0253169 C75.19734685 -0.02627605 76.89109632 -0.02724869 78.58484579 -0.02823468 C94.47936729 -0.03679594 110.37383695 -0.02694317 126.26834995 -0.01083358 C139.91331399 0.00256782 153.55820145 0.00024442 167.2031641 -0.01358986 C183.03810181 -0.02963692 198.87299403 -0.03596931 214.70793873 -0.02675307 C216.39586706 -0.0257974 218.0837954 -0.02485428 219.77172375 -0.02392387 C221.01754782 -0.02322963 221.01754782 -0.02322963 222.28854005 -0.02252137 C228.14770578 -0.01992867 234.00684272 -0.02430855 239.86600399 -0.03136253 C247.00498693 -0.03976815 254.14387088 -0.03751734 261.28284245 -0.0215203 C264.92686875 -0.01362448 268.5707299 -0.0105681 272.21475506 -0.02046776 C276.1610127 -0.03102648 280.10699865 -0.01843691 284.0532465 -0.00342751 C285.21072421 -0.01011967 286.36820192 -0.01681184 287.56075472 -0.02370679 C289.14267897 -0.01197193 289.14267897 -0.01197193 290.75656128 0 C291.66778274 0.00048706 292.57900419 0.00097411 293.51783842 0.00147593 C296.45006897 0.45648743 297.82906781 1.3142456 299.94120121 3.37752342 C300.39660616 6.50030021 300.62987112 8.43052841 298.73118305 11.04142821 C296.33613348 12.82916381 294.83939224 12.75346241 291.86399174 12.75504684 C290.80788322 12.76287009 289.75177471 12.77069333 288.66366291 12.77875364 C287.49938141 12.77206147 286.33509991 12.76536931 285.13553715 12.75847435 C283.90185776 12.76315432 282.66817837 12.76783429 281.39711475 12.77265608 C277.96623613 12.78257589 274.53584778 12.7789733 271.10499859 12.76969743 C267.40760042 12.76292768 263.71024604 12.77337782 260.01285648 12.78163719 C252.76712204 12.79499897 245.52148066 12.79208594 238.27574253 12.78339927 C232.38862689 12.77663272 226.50153739 12.77570153 220.61441898 12.77897072 C219.3590893 12.77966027 219.3590893 12.77966027 218.07839942 12.78036375 C216.37844721 12.78132289 214.678495 12.78229553 212.9785428 12.78328152 C197.02634762 12.79184257 181.0742041 12.78199008 165.12201738 12.76588042 C151.42500069 12.75247659 137.72806027 12.75480448 124.03104496 12.7686367 C108.13715324 12.7846799 92.24330684 12.79101853 76.34940815 12.78179991 C74.65559992 12.78084423 72.96179168 12.77990112 71.26798344 12.77897072 C70.43452924 12.77850789 69.60107503 12.77804507 68.74236465 12.77756821 C62.86018683 12.77497454 56.97803768 12.77935744 51.0958643 12.78640938 C43.93050247 12.7948106 36.76523928 12.79257338 29.5998888 12.77656715 C25.94180972 12.76866576 22.28389527 12.76562438 18.6258173 12.7755146 C14.66607288 12.78605877 10.70659991 12.77349563 6.74686527 12.75847435 C5.58258377 12.76516652 4.41830227 12.77185868 3.21873951 12.77875364 C1.63457674 12.76701878 1.63457674 12.76701878 0.01841068 12.75504684 C-0.89622826 12.75455979 -1.8108672 12.75407273 -2.75322247 12.75357091 C-5.52884064 12.30085797 -6.42199323 11.63559631 -8.05879879 9.37752342 C-8.69857727 4.25929554 -8.69857727 4.25929554 -6.85153621 1.71361864 C-4.45866967 -0.0697421 -2.97115147 0.00158839 0 0 Z " fill="#B8B8B8" transform="translate(110.05879878997803,241.6224765777588)"/>
<path d="M0 0 C1.05200842 -0.00843994 2.10401684 -0.01687988 3.1879043 -0.02557558 C4.92746695 -0.01656051 4.92746695 -0.01656051 6.70217228 -0.00736332 C8.54550769 -0.01544163 8.54550769 -0.01544163 10.42608219 -0.02368313 C13.8436235 -0.035544 17.26067924 -0.03387748 20.67820179 -0.02651632 C24.36130986 -0.02179941 28.04436486 -0.03428136 31.72745609 -0.04453373 C38.94544617 -0.06175626 46.16334933 -0.0625546 53.38135462 -0.05732083 C59.24653305 -0.05328426 65.11168572 -0.05471655 70.97686291 -0.06006908 C72.22759647 -0.06119172 72.22759647 -0.06119172 73.50359737 -0.06233703 C75.19734685 -0.06386846 76.89109632 -0.06540681 78.58484579 -0.066952 C94.47936394 -0.08068956 110.37383291 -0.07523056 126.26834995 -0.06376678 C140.81842367 -0.05383328 155.36837025 -0.06677485 169.91842436 -0.09070098 C184.84827575 -0.1150672 199.77806785 -0.12470595 214.70793873 -0.11804825 C223.09399809 -0.11455048 231.47995963 -0.11682473 239.86600399 -0.13429928 C247.00500683 -0.14899037 254.14384299 -0.14969743 261.28284245 -0.13222837 C264.92691777 -0.12369024 268.57069495 -0.12163672 272.21475506 -0.13687992 C276.16107312 -0.15318342 280.10692648 -0.13863872 284.0532465 -0.12088871 C285.21072421 -0.13049372 286.36820192 -0.14009872 287.56075472 -0.14999479 C289.14267897 -0.13527335 289.14267897 -0.13527335 290.75656128 -0.12025452 C291.66778274 -0.12014718 292.57900419 -0.12003984 293.51783842 -0.11992925 C296.71844966 0.54076131 297.92584875 1.86143278 299.94120121 4.38031673 C300.37870121 6.94281673 300.37870121 6.94281673 299.94120121 9.38031673 C298.28726836 11.60659797 297.40084457 12.30534731 294.63562489 12.75636423 C293.72098595 12.75685128 292.80634701 12.75733834 291.86399174 12.75784016 C290.80788322 12.7656634 289.75177471 12.77348664 288.66366291 12.78154695 C287.49938141 12.77485479 286.33509991 12.76816262 285.13553715 12.76126766 C283.90185776 12.76594763 282.66817837 12.77062761 281.39711475 12.7754494 C277.96623613 12.7853692 274.53584778 12.78176662 271.10499859 12.77249074 C267.40760042 12.76572099 263.71024604 12.77617114 260.01285648 12.7844305 C252.76712204 12.79779228 245.52148066 12.79487925 238.27574253 12.78619258 C232.38862689 12.77942603 226.50153739 12.77849485 220.61441898 12.78176403 C219.3590893 12.78245358 219.3590893 12.78245358 218.07839942 12.78315706 C216.37844721 12.7841162 214.678495 12.78508884 212.9785428 12.78607483 C197.02634762 12.79463589 181.0742041 12.78478339 165.12201738 12.76867373 C151.42500069 12.7552699 137.72806027 12.75759779 124.03104496 12.77143002 C108.13715324 12.78747322 92.24330684 12.79381185 76.34940815 12.78459322 C74.65559992 12.78363755 72.96179168 12.78269443 71.26798344 12.78176403 C70.43452924 12.7813012 69.60107503 12.78083838 68.74236465 12.78036153 C62.86018683 12.77776785 56.97803768 12.78215075 51.0958643 12.78920269 C43.93050247 12.79760391 36.76523928 12.79536669 29.5998888 12.77936046 C25.94180972 12.77145907 22.28389527 12.76841769 18.6258173 12.77830791 C14.66607288 12.78885208 10.70659991 12.77628894 6.74686527 12.76126766 C5.58258377 12.76795983 4.41830227 12.77465199 3.21873951 12.78154695 C1.63457674 12.76981209 1.63457674 12.76981209 0.01841068 12.75784016 C-0.89622826 12.7573531 -1.8108672 12.75686604 -2.75322247 12.75636423 C-5.52884064 12.30365128 -6.42199323 11.63838963 -8.05879879 9.38031673 C-8.69858714 4.26200993 -8.69858714 4.26200993 -6.85153621 1.71658653 C-4.45909144 -0.06669286 -2.97081232 0.00335582 0 0 Z " fill="#B9B9B9" transform="translate(110.05879878997803,307.61968326568604)"/>
<path d="M0 0 C7.53392978 4.56887691 11.45329064 11.13330943 14.18359375 19.32421875 C15.33710263 28.65449945 13.37611111 35.52966039 8.18359375 43.32421875 C2.98943969 49.90612389 -4.98149 52.30854949 -13.015625 53.70703125 C-20.51964931 54.16366559 -27.50793845 50.69071583 -33.19140625 46.07421875 C-38.14102255 41.43457842 -41.42170548 35.34452798 -42.08984375 28.5390625 C-42.38323363 19.07159663 -40.57211499 12.77176857 -34.44140625 5.51171875 C-24.12015834 -3.08932118 -12.90814699 -6.04075844 0 0 Z " fill="#CCCCCC" transform="translate(190.81640625,81.67578125)"/>
<path d="M0 0 C1.31102188 -0.00571014 2.62204376 -0.01142029 3.97279358 -0.01730347 C5.43421927 -0.01854888 6.89564506 -0.01967396 8.35707092 -0.02069092 C9.88942586 -0.02531795 11.42177965 -0.03034245 12.95413208 -0.03573608 C17.12350315 -0.04887163 21.29285812 -0.05530708 25.46224666 -0.05974674 C28.06504901 -0.06267511 30.66784692 -0.06677942 33.27064705 -0.07125092 C41.40836439 -0.08492778 49.54607164 -0.09459398 57.68379968 -0.09845281 C67.08880719 -0.10293668 76.49366958 -0.120499 85.89863294 -0.1494534 C93.1615081 -0.17103986 100.42434233 -0.18115543 107.68724924 -0.18249393 C112.02845333 -0.18354398 116.36952104 -0.18949422 120.71069145 -0.20731354 C124.79251832 -0.22374229 128.87410554 -0.22597522 132.9559536 -0.21717453 C134.45599253 -0.2164014 135.95604408 -0.22078302 137.45605087 -0.23063278 C139.49987736 -0.24326898 141.54379929 -0.2357143 143.58764648 -0.22705078 C144.73268111 -0.22851734 145.87771574 -0.2299839 147.05744839 -0.2314949 C149.85731506 0.14044189 149.85731506 0.14044189 151.75698185 1.44075394 C152.85731506 3.14044189 152.85731506 3.14044189 152.73231506 6.70294189 C151.85731506 10.14044189 151.85731506 10.14044189 148.85731506 12.14044189 C146.09426975 12.3977108 146.09426975 12.3977108 142.67703247 12.40786743 C140.73584785 12.42066238 140.73584785 12.42066238 138.75544739 12.43371582 C137.31813037 12.43301677 135.88081345 12.4320937 134.4434967 12.43096924 C132.9323188 12.43695246 131.42114395 12.44375753 129.90997314 12.45132446 C125.80255889 12.46901163 121.69522793 12.47368095 117.58777928 12.47495604 C114.16072915 12.47685383 110.73369848 12.48420989 107.30665582 12.49130023 C99.22270215 12.50759171 91.13879303 12.51246844 83.05482483 12.51104736 C74.71083498 12.50984536 66.36710355 12.53095711 58.02317911 12.56253469 C50.86301805 12.58866845 43.70294154 12.5994159 36.54273313 12.59813654 C32.2646336 12.5976261 27.98676373 12.60335456 23.70871162 12.62449265 C19.68589233 12.64382668 15.66352291 12.64403304 11.64068794 12.62945938 C10.16364385 12.62736421 8.68657195 12.63211426 7.20957565 12.6441803 C5.19463399 12.65957588 3.17953963 12.64795151 1.1645813 12.63491821 C-0.52751669 12.63655252 -0.52751669 12.63655252 -2.25379848 12.63821983 C-5.81629677 12.02437326 -7.0343979 11.04241968 -9.14268494 8.14044189 C-9.01768494 4.45294189 -9.01768494 4.45294189 -8.14268494 1.14044189 C-5.36652184 -0.24763965 -3.10772099 0.00807615 0 0 Z " fill="#B9B9B9" transform="translate(111.14268493652344,440.85955810546875)"/>
<path d="M0 0 C1.52685173 -0.01062721 1.52685173 -0.01062721 3.08454895 -0.02146912 C4.20048935 -0.0189917 5.31642975 -0.01651428 6.46618652 -0.01396179 C8.22988838 -0.02162819 8.22988838 -0.02162819 10.02922058 -0.02944946 C13.2543961 -0.04097822 16.47941246 -0.04341747 19.7046032 -0.04088616 C22.39609106 -0.03981711 25.08755517 -0.04469804 27.77903795 -0.04949158 C34.12740892 -0.06058883 40.47572071 -0.06102271 46.82409668 -0.05497742 C53.37649277 -0.04893389 59.92867432 -0.06125758 66.4810338 -0.08254749 C72.10488776 -0.10014957 77.72867334 -0.10616714 83.35255384 -0.10290974 C86.71229351 -0.10109478 90.07188008 -0.10375415 93.43159485 -0.11762428 C97.17636838 -0.12990884 100.92064026 -0.12324491 104.66540527 -0.11161804 C106.33931587 -0.12308365 106.33931587 -0.12308365 108.04704285 -0.13478088 C109.57389458 -0.12425941 109.57389458 -0.12425941 111.1315918 -0.11352539 C112.01722557 -0.11369313 112.90285934 -0.11386087 113.81533051 -0.1140337 C116.55375497 0.34194759 117.44241545 1.03734259 119.0657959 3.26069641 C119.70618959 8.38384594 119.70618959 8.38384594 117.85074615 10.92438698 C115.49368676 12.68900798 114.06207703 12.6379047 111.1315918 12.64164734 C110.11369064 12.65010681 109.09578949 12.65856628 108.04704285 12.6672821 C106.93110245 12.66120941 105.81516205 12.65513672 104.66540527 12.64888 C103.48960403 12.65413696 102.3138028 12.65939392 101.10237122 12.66481018 C97.87711901 12.67576144 94.65223536 12.67318073 91.4269886 12.66367292 C88.05312444 12.65608212 84.67928504 12.66312032 81.30541992 12.66783142 C75.63939996 12.67329068 69.97349728 12.66609297 64.30749512 12.65180969 C57.75508714 12.63548274 51.20295919 12.64077113 44.65055799 12.65728891 C39.02669358 12.670899 33.40291351 12.67282581 27.77903795 12.6649729 C24.41931092 12.66029371 21.05971554 12.65967814 17.69999695 12.66958237 C13.95519904 12.67717492 10.21094386 12.66562266 6.46618652 12.64888 C4.79227592 12.65798904 4.79227592 12.65798904 3.08454895 12.6672821 C2.0666478 12.65882263 1.04874664 12.65036316 0 12.64164734 C-0.88563377 12.64051626 -1.77126755 12.63938519 -2.68373871 12.63821983 C-5.43363302 12.17691547 -6.32306171 11.51334832 -7.9342041 9.26069641 C-8.3092041 5.69819641 -8.3092041 5.69819641 -7.9342041 2.26069641 C-4.67639793 0.08882563 -3.76690298 0.00873156 0 0 Z " fill="#B8B9B9" transform="translate(282.9342041015625,175.7393035888672)"/>
<path d="M0 0 C1.52685173 -0.01062721 1.52685173 -0.01062721 3.08454895 -0.02146912 C4.20048935 -0.0189917 5.31642975 -0.01651428 6.46618652 -0.01396179 C8.22988838 -0.02162819 8.22988838 -0.02162819 10.02922058 -0.02944946 C13.2543961 -0.04097822 16.47941246 -0.04341747 19.7046032 -0.04088616 C22.39609106 -0.03981711 25.08755517 -0.04469804 27.77903795 -0.04949158 C34.12740892 -0.06058883 40.47572071 -0.06102271 46.82409668 -0.05497742 C53.37649277 -0.04893389 59.92867432 -0.06125758 66.4810338 -0.08254749 C72.10488776 -0.10014957 77.72867334 -0.10616714 83.35255384 -0.10290974 C86.71229351 -0.10109478 90.07188008 -0.10375415 93.43159485 -0.11762428 C97.17636838 -0.12990884 100.92064026 -0.12324491 104.66540527 -0.11161804 C106.33931587 -0.12308365 106.33931587 -0.12308365 108.04704285 -0.13478088 C109.57389458 -0.12425941 109.57389458 -0.12425941 111.1315918 -0.11352539 C112.01722557 -0.11369313 112.90285934 -0.11386087 113.81533051 -0.1140337 C116.55375497 0.34194759 117.44241545 1.03734259 119.0657959 3.26069641 C119.70618959 8.38384594 119.70618959 8.38384594 117.85074615 10.92438698 C115.49368676 12.68900798 114.06207703 12.6379047 111.1315918 12.64164734 C110.11369064 12.65010681 109.09578949 12.65856628 108.04704285 12.6672821 C106.93110245 12.66120941 105.81516205 12.65513672 104.66540527 12.64888 C103.48960403 12.65413696 102.3138028 12.65939392 101.10237122 12.66481018 C97.87711901 12.67576144 94.65223536 12.67318073 91.4269886 12.66367292 C88.05312444 12.65608212 84.67928504 12.66312032 81.30541992 12.66783142 C75.63939996 12.67329068 69.97349728 12.66609297 64.30749512 12.65180969 C57.75508714 12.63548274 51.20295919 12.64077113 44.65055799 12.65728891 C39.02669358 12.670899 33.40291351 12.67282581 27.77903795 12.6649729 C24.41931092 12.66029371 21.05971554 12.65967814 17.69999695 12.66958237 C13.95519904 12.67717492 10.21094386 12.66562266 6.46618652 12.64888 C4.79227592 12.65798904 4.79227592 12.65798904 3.08454895 12.6672821 C2.0666478 12.65882263 1.04874664 12.65036316 0 12.64164734 C-0.88563377 12.64051626 -1.77126755 12.63938519 -2.68373871 12.63821983 C-5.43363302 12.17691547 -6.32306171 11.51334832 -7.9342041 9.26069641 C-8.3092041 5.69819641 -8.3092041 5.69819641 -7.9342041 2.26069641 C-4.67639793 0.08882563 -3.76690298 0.00873156 0 0 Z " fill="#B8B8B8" transform="translate(282.9342041015625,109.73930358886719)"/>
<path d="M0 0 C8.6555895 -0.59239776 15.94931026 0.17811792 23.0390625 5.54296875 C27.72348426 9.8984843 31.61889077 14.98898153 32.23828125 21.5078125 C32.24853883 23.68925707 32.18109937 25.82680759 32 28 C29.70081452 25.70081452 29.73356864 25.03809636 29.3125 21.9375 C27.9971188 15.56612231 24.34489119 10.56296857 19.1953125 6.6171875 C13.08065638 2.94839383 6.96326212 1.72033746 0 1 C0 0.67 0 0.34 0 0 Z " fill="#C2C2C2" transform="translate(172,79)"/>
</svg>
